<?xml version="1.0" encoding="UTF-8" standalone="no"?>
<!DOCTYPE svg PUBLIC "-//W3C//DTD SVG 1.1//EN" "http://www.w3.org/Graphics/SVG/1.1/DTD/svg11.dtd">
<!-- Generated by Microsoft Visio, SVG Export MemoryGeneralSchema.svg Page-1 -->
<svg xmlns="http://www.w3.org/2000/svg" xmlns:xlink="http://www.w3.org/1999/xlink" xmlns:ev="http://www.w3.org/2001/xml-events"
		xmlns:v="http://schemas.microsoft.com/visio/2003/SVGExtensions/" width="5.44002in" height="3.19592in"
		viewBox="0 0 391.681 230.106" xml:space="preserve" color-interpolation-filters="sRGB" class="st24">
	<v:documentProperties v:langID="1033" v:metric="true" v:viewMarkup="false"/>

	<style type="text/css">
	<![CDATA[
		.st1 {fill:#f2f2f2;stroke:#c7c8c8;stroke-width:0.25}
		.st2 {fill:#000000;stroke:#c7c8c8;stroke-width:0.25}
		.st3 {fill:#feffff;font-family:Calibri;font-size:0.666664em}
		.st4 {font-size:1em}
		.st5 {fill:#c55a11;stroke:#c7c8c8;stroke-width:0.25}
		.st6 {fill:#4672c4;stroke:#c7c8c8;stroke-width:0.25}
		.st7 {marker-end:url(#mrkr5-24);stroke:#4672c4;stroke-linecap:round;stroke-linejoin:round;stroke-width:1}
		.st8 {fill:#4672c4;fill-opacity:1;stroke:#4672c4;stroke-opacity:1;stroke-width:0.28409090909091}
		.st9 {fill:#ffffff;stroke:none;stroke-linecap:round;stroke-linejoin:round;stroke-width:0.75}
		.st10 {fill:#d1a65c;stroke:#a69584;stroke-linecap:butt;stroke-width:0.125}
		.st11 {fill:url(#grad0-36);stroke:#374482;stroke-linecap:butt;stroke-width:0.125}
		.st12 {fill:url(#grad10-40);stroke:#c95757;stroke-linecap:butt;stroke-width:0.125}
		.st13 {fill:url(#grad9-48);stroke:#c95757;stroke-linecap:butt;stroke-width:0.125}
		.st14 {fill:url(#grad0-52);stroke:#c95757;stroke-linecap:butt;stroke-width:0.125}
		.st15 {fill:none;stroke:#c8c8c8;stroke-width:0.25}
		.st16 {fill:#374482;stroke:none;stroke-linecap:butt;stroke-width:0.75}
		.st17 {marker-end:url(#mrkr4-62);stroke:#4672c4;stroke-linecap:round;stroke-linejoin:round;stroke-width:1}
		.st18 {fill:none;stroke:none;stroke-width:0.25}
		.st19 {fill:#000000;font-family:Calibri;font-size:0.666664em}
		.st20 {fill:#000000;font-family:Calibri;font-size:0.499992em}
		.st21 {fill:#538135;stroke:#c7c8c8;stroke-width:0.25}
		.st22 {marker-end:url(#mrkr13-103);marker-start:url(#mrkr13-101);stroke:#4672c4;stroke-linecap:round;stroke-linejoin:round;stroke-width:1}
		.st23 {marker-end:url(#mrkr4-62);marker-start:url(#mrkr4-110);stroke:#4672c4;stroke-dasharray:0,3;stroke-linecap:round;stroke-linejoin:round;stroke-width:1}
		.st24 {fill:none;fill-rule:evenodd;font-size:12px;overflow:visible;stroke-linecap:square;stroke-miterlimit:3}
	]]>
	</style>

	<defs id="Patterns_And_Gradients">
		<linearGradient id="grad0-36" x1="0" y1="0" x2="1" y2="0" gradientTransform="rotate(0 0.5 0.5)">
			<stop offset="0" stop-color="#ffffff" stop-opacity="1"/>
			<stop offset="1" stop-color="#7799e8" stop-opacity="1"/>
		</linearGradient>
		<pattern id="grad10-40" x="0" y="0" width="1" height="1" patternContentUnits="objectBoundingBox">
			<path d="M 0.5 0.5 L 0 0 L 0 1 z" style="fill:url(#grad0-41)"/>
			<path d="M 0.5 0.5 L 1 0 L 1 1 z" style="fill:url(#grad0-42)"/>
			<path d="M 0.5 0.5 L 0 0 L 1 0 z" style="fill:url(#grad0-43)"/>
			<path d="M 0.5 0.5 L 0 1 L 1 1 z" style="fill:url(#grad0-44)"/>
		</pattern>
		<linearGradient id="grad0-41" x1="0" y1="0" x2="1" y2="0" gradientTransform="rotate(180 0.5 0.5)">
			<stop offset="0" stop-color="#d1a65c" stop-opacity="1"/>
			<stop offset="1" stop-color="#e8d3ae" stop-opacity="1"/>
		</linearGradient>
		<linearGradient id="grad0-42" x1="0" y1="0" x2="1" y2="0" gradientTransform="rotate(360 0.5 0.5)">
			<stop offset="0" stop-color="#d1a65c" stop-opacity="1"/>
			<stop offset="1" stop-color="#e8d3ae" stop-opacity="1"/>
		</linearGradient>
		<linearGradient id="grad0-43" x1="0" y1="0" x2="1" y2="0" gradientTransform="rotate(270 0.5 0.5)">
			<stop offset="0" stop-color="#d1a65c" stop-opacity="1"/>
			<stop offset="1" stop-color="#e8d3ae" stop-opacity="1"/>
		</linearGradient>
		<linearGradient id="grad0-44" x1="0" y1="0" x2="1" y2="0" gradientTransform="rotate(90 0.5 0.5)">
			<stop offset="0" stop-color="#d1a65c" stop-opacity="1"/>
			<stop offset="1" stop-color="#e8d3ae" stop-opacity="1"/>
		</linearGradient>
		<pattern id="grad9-48" x="0" y="0" width="1" height="1" patternContentUnits="objectBoundingBox">
			<path d="M 0 1 L 0 0 L 1 0 z" style="fill:url(#grad0-43)"/>
			<path d="M 0 1 L 1 1 L 1 0 z" style="fill:url(#grad0-42)"/>
		</pattern>
		<linearGradient id="grad0-52" x1="0" y1="0" x2="1" y2="0" gradientTransform="rotate(0 0.5 0.5)">
			<stop offset="0" stop-color="#d1a65c" stop-opacity="1"/>
			<stop offset="1" stop-color="#e8d3ae" stop-opacity="1"/>
		</linearGradient>
	</defs>
	<defs id="Markers">
		<g id="lend5">
			<path d="M 2 1 L 0 0 L 1.98117 -0.993387 C 1.67173 -0.364515 1.67301 0.372641 1.98465 1.00043 " style="stroke:none"/>
		</g>
		<marker id="mrkr5-24" class="st8" v:arrowType="5" v:arrowSize="2" v:setback="6.16" refX="-6.16" orient="auto"
				markerUnits="strokeWidth" overflow="visible">
			<use xlink:href="#lend5" transform="scale(-3.52,-3.52) "/>
		</marker>
		<g id="lend4">
			<path d="M 2 1 L 0 0 L 2 -1 L 2 1 " style="stroke:none"/>
		</g>
		<marker id="mrkr4-62" class="st8" v:arrowType="4" v:arrowSize="2" v:setback="7.04" refX="-7.04" orient="auto"
				markerUnits="strokeWidth" overflow="visible">
			<use xlink:href="#lend4" transform="scale(-3.52,-3.52) "/>
		</marker>
		<g id="lend13">
			<path d="M 3 1 L 0 0 L 3 -1 L 3 1 " style="stroke:none"/>
		</g>
		<marker id="mrkr13-101" class="st8" v:arrowType="13" v:arrowSize="2" v:setback="10.2" refX="10.2" orient="auto"
				markerUnits="strokeWidth" overflow="visible">
			<use xlink:href="#lend13" transform="scale(3.52) "/>
		</marker>
		<marker id="mrkr13-103" class="st8" v:arrowType="13" v:arrowSize="2" v:setback="10.56" refX="-10.56" orient="auto"
				markerUnits="strokeWidth" overflow="visible">
			<use xlink:href="#lend13" transform="scale(-3.52,-3.52) "/>
		</marker>
		<marker id="mrkr4-110" class="st8" v:arrowType="4" v:arrowSize="2" v:setback="6.68" refX="6.68" orient="auto"
				markerUnits="strokeWidth" overflow="visible">
			<use xlink:href="#lend4" transform="scale(3.52) "/>
		</marker>
	</defs>
	<g v:mID="0" v:index="1" v:groupContext="foregroundPage">
		<title>Page-1</title>
		<v:pageProperties v:drawingScale="0.0393701" v:pageScale="0.0393701" v:drawingUnits="24" v:shadowOffsetX="8.50394"
				v:shadowOffsetY="-8.50394"/>
		<v:layer v:name="Connector" v:index="0"/>
		<g id="group134-1" transform="translate(0.25,-0.25)" v:mID="134" v:groupContext="group">
			<title>Sheet.134</title>
			<g id="group130-2" v:mID="130" v:groupContext="group">
				<title>Sheet.130</title>
				<g id="shape119-3" v:mID="119" v:groupContext="shape">
					<title>Rectangle.119</title>
					<v:userDefs>
						<v:ud v:nameU="visVersion" v:val="VT0(15):26"/>
					</v:userDefs>
					<rect x="0" y="0.500002" width="391.181" height="229.606" class="st1"/>
				</g>
			</g>
			<g id="shape3-5" v:mID="3" v:groupContext="shape" transform="translate(175.213,-7.79528)">
				<title>Rectangle</title>
				<desc>SERVER SignalR HUB</desc>
				<v:userDefs>
					<v:ud v:nameU="visVersion" v:val="VT0(15):26"/>
				</v:userDefs>
				<v:textBlock v:margins="rect(4,4,4,4)" v:tabSpace="42.5197"/>
				<v:textRect cx="36.8504" cy="215.933" width="73.71" height="28.3465"/>
				<rect x="0" y="201.76" width="73.7008" height="28.3465" class="st2"/>
				<text x="24.49" y="213.53" class="st3" v:langID="2057"><v:paragraph v:horizAlign="1"/><v:tabList/>SERVER<v:newlineChar/><tspan
							x="16.97" dy="1.2em" class="st4">SignalR HUB</tspan></text>			</g>
			<g id="shape13-9" v:mID="13" v:groupContext="shape" transform="translate(175.213,-101.024)">
				<title>Rectangle.13</title>
				<desc>Login/JWT</desc>
				<v:userDefs>
					<v:ud v:nameU="visVersion" v:val="VT0(15):26"/>
				</v:userDefs>
				<v:textBlock v:margins="rect(4,4,4,4)" v:tabSpace="42.5197"/>
				<v:textRect cx="36.8504" cy="220.106" width="73.71" height="20"/>
				<rect x="0" y="210.106" width="73.7008" height="20" class="st5"/>
				<text x="19.83" y="222.51" class="st3" v:langID="2057"><v:paragraph v:horizAlign="1"/><v:tabList/>Login/JWT</text>			</g>
			<g id="group14-12" transform="translate(314.11,-78.3343)" v:mID="14" v:groupContext="group">
				<v:userDefs>
					<v:ud v:nameU="visVersion" v:prompt="" v:val="VT0(15):26"/>
				</v:userDefs>
				<title>Can.14</title>
				<desc>PostgreSQL DB1</desc>
				<g id="shape15-13" v:mID="15" v:groupContext="shape">
					<title>Sheet.15</title>
					<v:userDefs>
						<v:ud v:nameU="ControlHalfHeight" v:prompt="" v:val="VT0(0.11811023622047):24"/>
						<v:ud v:nameU="FillForegnd" v:prompt="" v:val="VT0(1):26"/>
						<v:ud v:nameU="ControlHalfHeight" v:prompt="" v:val="VT0(0.090551179756065):1"/>
						<v:ud v:nameU="FillForegnd" v:prompt="" v:val="VT5(#4672c4)"/>
					</v:userDefs>
					<path d="M0 223.59 A25.5118 6.51968 -180 1 0 51.02 223.59 L51.02 171.43 L0 171.43 L0 223.59 Z" class="st6"/>
				</g>
				<g id="shape14-15" v:mID="14" v:groupContext="groupContent">
					<v:textBlock v:margins="rect(4,4,4,4)" v:tabSpace="42.5197"/>
					<v:textRect cx="25.5118" cy="197.508" width="51.03" height="65.1968"/>
					<ellipse cx="25.5118" cy="171.429" rx="25.5118" ry="6.51968" class="st6"/>
					<text x="6.95" y="195.11" class="st3" v:langID="2057"><v:paragraph v:horizAlign="1"/><v:tabList/>PostgreSQL<v:newlineChar/><tspan
								x="18.85" dy="1.2em" class="st4">DB1</tspan></text>				</g>
			</g>
			<g id="shape16-19" v:mID="16" v:groupContext="shape" v:layerMember="0" transform="translate(248.913,-118.065)">
				<title>Dynamic connector.16</title>
				<path d="M0 237.15 L59.04 237.23" class="st7"/>
			</g>
			<g id="shape24-25" v:mID="24" v:groupContext="shape" transform="translate(175.213,-139.606)">
				<title>Rectangle.24</title>
				<desc>Register</desc>
				<v:userDefs>
					<v:ud v:nameU="visVersion" v:val="VT0(15):26"/>
				</v:userDefs>
				<v:textBlock v:margins="rect(4,4,4,4)" v:tabSpace="42.5197"/>
				<v:textRect cx="36.8504" cy="220.106" width="73.71" height="20"/>
				<rect x="0" y="210.106" width="73.7008" height="20" class="st5"/>
				<text x="23.6" y="222.51" class="st3" v:langID="2057"><v:paragraph v:horizAlign="1"/><v:tabList/>Register</text>			</g>
			<g id="group32-28" transform="translate(197.89,-176.457)" v:mID="32" v:groupContext="group">
				<v:userDefs>
					<v:ud v:nameU="visVersion" v:prompt="" v:val="VT0(15):26"/>
				</v:userDefs>
				<title>Mail</title>
				<g id="shape33-29" v:mID="33" v:groupContext="shape" transform="translate(2.08795,-1.99488)">
					<title>Sheet.33</title>
					<path d="M23.48 214.24 L20.6 212.03 L20.6 208.62 L16.15 208.62 L12.8 206.05 A1.18219 1.18219 -180 0 0 12.08 205.82
								 A1.18219 1.18219 -180 0 0 11.37 206.05 L8.02 208.62 L3.61 208.62 L3.61 211.99 L0.76 214.18 A3.29312
								 3.29312 -180 0 0 0.25 214.66 a0.764316 0.764316 -180 0 0 -0.209775 0.375412 a0.734071 0.734071 0
								 0 1 -0.0114 0.0963 A4719.95 4719.95 -180 0 0 0.01 222.61 A363.787 363.787 -180 0 0 0.03 230.09 L0.03
								 230.11 L24.18 230.11 L24.19 215.06 a0.73975 0.73975 -180 0 0 -0.209775 -0.356137 A3.52998 3.52998
								 -180 0 0 23.48 214.24 Z" class="st9"/>
				</g>
				<g id="shape34-31" v:mID="34" v:groupContext="shape" transform="translate(2.12028,-1.99473)">
					<title>Sheet.34</title>
					<path d="M24.16 215.06 A1.90269 1.90269 -180 0 0 23.45 214.24 L12.76 206.05 A1.24226 1.24226 -180 0 0 11.34 206.05
								 L0.73 214.18 A1.85085 1.85085 -180 0 0 0.01 215.03 a0.734071 0.734071 0 0 1 -0.0114 0.0963 L0 230.11
								 L24.15 230.11 L24.16 215.06 Z" class="st10"/>
				</g>
				<g id="shape35-33" v:mID="35" v:groupContext="shape" transform="translate(5.69898,-9.45093)">
					<title>Sheet.35</title>
					<path d="M8.35 229.48 L8.5 229.48 L8.52 229.48 L8.53 229.48 L8.68 229.48 A2.15647 2.15647 0 0 1 9.29 229.59 A2.09111
								 2.09111 0 0 1 9.84 229.84 L10.1 230.02 L16.99 225.44 L16.99 216.08 L0 216.08 L0 225.54 L6.84 230.11
								 L7.2 229.84 A2.08792 2.08792 0 0 1 7.75 229.59 A2.15424 2.15424 0 0 1 8.35 229.48 Z" class="st11"/>
				</g>
				<g id="shape36-37" v:mID="36" v:groupContext="shape" transform="translate(15.7979,-2.20653)">
					<title>Sheet.36</title>
					<path d="M6.89 218.2 L0 222.78 L5.23 226.43 L10.28 229.96 a0.546361 0.546361 0 0 1 0.1524 0.147 L10.43 215.85
								 L6.89 218.2 Z" class="st12"/>
				</g>
				<g id="shape37-45" v:mID="37" v:groupContext="shape" transform="translate(2.08458,-2.05113)">
					<title>Sheet.37</title>
					<path d="M3.54 218.04 L10.77 222.85 L5.34 226.45 L0.14 230.11 a0.354662 0.354662 0 0 1 -0.1365 -0.1554 L0 215.69
								 L3.54 218.04 Z" class="st13"/>
				</g>
				<g id="shape38-49" v:mID="38" v:groupContext="shape" transform="translate(2.18581,-1.9932)">
					<title>Sheet.38</title>
					<path d="M23.89 229.75 L13.61 222.57 L13.61 222.57 L13.35 222.38 A2.08747 2.08747 -180 0 0 12.8 222.13 A2.15742
								 2.15742 -180 0 0 12.2 222.02 L12.05 222.02 L12.03 222.03 L12.01 222.02 L11.86 222.02 A2.15545 2.15545
								 -180 0 0 11.26 222.13 A2.09139 2.09139 -180 0 0 10.71 222.38 L10.41 222.59 L0.17 229.75 a0.192824
								 0.192824 -180 0 0 -0.1329 0.3024 a0.458022 0.458022 -180 0 0 0.2604 0.0564 L12.01 230.1 L12.03 230.1
								 L12.05 230.1 L23.77 230.1 a0.458709 0.458709 -180 0 0 0.2604 -0.0564 a0.124982 0.124982 -180 0 0
								 0.0189 -0.0189 L24.04 229.89 a0.546361 0.546361 -180 0 0 -0.1524 -0.147 Z" class="st14"/>
				</g>
				<g id="shape39-53" v:mID="39" v:groupContext="shape" transform="translate(2.08951,-1.99473)">
					<title>Sheet.39</title>
					<path d="M23.48 214.24 L20.6 212.03 L20.6 208.62 L16.15 208.62 L12.8 206.05 A1.18219 1.18219 -180 0 0 12.08 205.82
								 A1.18219 1.18219 -180 0 0 11.37 206.05 L8.02 208.62 L3.61 208.62 L3.61 211.99 L0.76 214.18 A3.29312
								 3.29312 -180 0 0 0.25 214.66 a0.764316 0.764316 -180 0 0 -0.209775 0.375412 a0.734071 0.734071 0
								 0 1 -0.0114 0.0963 A4719.95 4719.95 -180 0 0 0.01 222.61 A363.787 363.787 -180 0 0 0.03 230.09 L0.03
								 230.11 L24.18 230.11 L24.19 215.06 a0.73975 0.73975 -180 0 0 -0.209775 -0.356137 A3.52998 3.52998
								 -180 0 0 23.48 214.24 Z" class="st15"/>
				</g>
				<g id="shape40-55" v:mID="40" v:groupContext="shape" transform="translate(8.00208,-14.9079)">
					<title>Sheet.40</title>
					<path d="M1.44 229.88 L10.72 229.88 a0.112541 0.112541 0 0 1 0.1125 0.1125 a0.112541 0.112541 0 0 1 -0.1125 0.1125
								 L1.44 230.11 a0.112541 0.112541 0 0 1 -0.1125 -0.1125 a0.112541 0.112541 0 0 1 0.1125 -0.1125 ZM0.11
								 227.42 L12.04 227.42 a0.112541 0.112541 0 0 1 0.1125 0.1125 a0.112541 0.112541 0 0 1 -0.1125 0.1125
								 L0.11 227.65 a0.112541 0.112541 0 0 1 -0.1125 -0.1125 a0.112541 0.112541 0 0 1 0.1125 -0.1125 ZM0.11
								 224.96 L12.04 224.96 a0.112541 0.112541 0 0 1 0.1125 0.1125 a0.112541 0.112541 0 0 1 -0.1125 0.1125
								 L0.11 225.19 a0.112541 0.112541 0 0 1 -0.1125 -0.1125 a0.112541 0.112541 0 0 1 0.1125 -0.1125 Z"
							class="st16"/>
				</g>
			</g>
			<g id="shape41-57" v:mID="41" v:groupContext="shape" v:layerMember="0" transform="translate(204.976,-159.606)">
				<title>Dynamic connector.41</title>
				<path d="M7.09 230.11 L7.09 218.3" class="st17"/>
			</g>
			<g id="shape45-63" v:mID="45" v:groupContext="shape" transform="translate(158.205,-198.976)">
				<title>Sheet.45</title>
				<desc>Email with token (secret code)</desc>
				<v:textBlock v:margins="rect(4,4,4,4)" v:tabSpace="42.5197"/>
				<v:textRect cx="56.6929" cy="220.106" width="113.39" height="20"/>
				<rect x="0" y="210.106" width="113.386" height="20" class="st18"/>
				<text x="7.31" y="222.51" class="st19" v:langID="2057"><v:paragraph v:horizAlign="1"/><v:tabList/>Email with token (secret code)</text>			</g>
			<g id="shape46-66" v:mID="46" v:groupContext="shape" v:layerMember="0" transform="translate(248.913,-149.606)">
				<title>Dynamic connector.46</title>
				<path d="M0 230.11 L12.67 230.11 L12.67 257.44 L59.04 257.44" class="st7"/>
			</g>
			<g id="shape63-71" v:mID="63" v:groupContext="shape" transform="translate(302.772,-60.2362)">
				<title>Sheet.63</title>
				<desc>One shared database for the simplicity</desc>
				<v:textBlock v:margins="rect(4,4,4,4)" v:tabSpace="42.5197"/>
				<v:textRect cx="36.8504" cy="220.106" width="73.71" height="20"/>
				<rect x="0" y="210.106" width="73.7008" height="20" class="st18"/>
				<text x="6.78" y="218.31" class="st20" v:langID="2057"><v:paragraph v:horizAlign="1"/><v:tabList/>One shared database for <tspan
							x="20.57" dy="1.2em" class="st4">the simplicity</tspan></text>			</g>
			<g id="shape90-75" v:mID="90" v:groupContext="shape" transform="translate(175.213,-64.4094)">
				<title>Rectangle.90</title>
				<desc>Highscore</desc>
				<v:userDefs>
					<v:ud v:nameU="visVersion" v:val="VT0(15):26"/>
				</v:userDefs>
				<v:textBlock v:margins="rect(4,4,4,4)" v:tabSpace="42.5197"/>
				<v:textRect cx="36.8504" cy="220.106" width="73.71" height="20"/>
				<rect x="0" y="210.106" width="73.7008" height="20" class="st5"/>
				<text x="20.71" y="222.51" class="st3" v:langID="2057"><v:paragraph v:horizAlign="1"/><v:tabList/>Highscore</text>			</g>
			<g id="shape91-78" v:mID="91" v:groupContext="shape" v:layerMember="0" transform="translate(248.913,-74.4094)">
				<title>Dynamic connector.91</title>
				<path d="M0 230.11 L12.67 230.11 L12.67 204.92 L59.04 204.92" class="st7"/>
			</g>
			<g id="group117-83" transform="translate(14.7087,-78.4252)" v:mID="117" v:groupContext="group">
				<title>Sheet.117</title>
				<g id="group88-84" v:mID="88" v:groupContext="group">
					<title>Sheet.88</title>
					<g id="shape64-85" v:mID="64" v:groupContext="shape">
						<title>Rectangle.64</title>
						<v:userDefs>
							<v:ud v:nameU="visVersion" v:val="VT0(15):26"/>
						</v:userDefs>
						<rect x="0" y="164.909" width="98.1417" height="65.1968" class="st6"/>
					</g>
				</g>
				<g id="shape5-87" v:mID="5" v:groupContext="shape" transform="translate(5.66929,-34.889)">
					<title>Rectangle.5</title>
					<desc>Blazor MAUI MOBILE (client)</desc>
					<v:userDefs>
						<v:ud v:nameU="visVersion" v:val="VT0(15):26"/>
					</v:userDefs>
					<v:textBlock v:margins="rect(4,4,4,4)" v:tabSpace="42.5197"/>
					<v:textRect cx="42.5197" cy="220.106" width="85.04" height="20"/>
					<rect x="0" y="210.106" width="85.0394" height="20" class="st21"/>
					<text x="8.42" y="217.71" class="st3" v:langID="2057"><v:paragraph v:horizAlign="1"/><v:tabList/>Blazor MAUI MOBILE<v:newlineChar/><tspan
								x="31.14" dy="1.2em" class="st4">(client)</tspan></text>				</g>
				<g id="shape6-91" v:mID="6" v:groupContext="shape" transform="translate(6.55118,-11.1811)">
					<title>Rectangle.6</title>
					<desc>Blazor MAUI Windows (client)</desc>
					<v:userDefs>
						<v:ud v:nameU="visVersion" v:val="VT0(15):26"/>
					</v:userDefs>
					<v:textBlock v:margins="rect(4,4,4,4)" v:tabSpace="42.5197"/>
					<v:textRect cx="42.5197" cy="220.106" width="85.04" height="20"/>
					<rect x="0" y="210.106" width="85.0394" height="20" class="st21"/>
					<text x="6.1" y="217.71" class="st3" v:langID="2057"><v:paragraph v:horizAlign="1"/><v:tabList/>Blazor MAUI Windows<v:newlineChar/><tspan
								x="31.14" dy="1.2em" class="st4">(client)</tspan></text>				</g>
			</g>
			<g id="shape118-95" v:mID="118" v:groupContext="shape" v:layerMember="0" transform="translate(63.7795,-78.4252)">
				<title>Dynamic connector</title>
				<path d="M0 240.31 L0 240.67 L0 286.56 L100.87 286.56" class="st22"/>
			</g>
			<g id="shape128-104" v:mID="128" v:groupContext="shape" v:layerMember="0" transform="translate(112.85,-103.937)">
				<title>Dynamic connector.128</title>
				<path d="M6.68 223.02 L7.04 223.02 L55.32 223.02" class="st23"/>
			</g>
			<g id="shape132-112" v:mID="132" v:groupContext="shape" v:layerMember="0" transform="translate(112.85,-119.055)">
				<title>Dynamic connector.132</title>
				<path d="M6 227.17 L6.32 227.01 L56.04 202.65" class="st23"/>
			</g>
			<g id="shape133-119" v:mID="133" v:groupContext="shape" v:layerMember="0" transform="translate(112.85,-102.047)">
				<title>Dynamic connector.133</title>
				<path d="M6.11 232.81 L6.44 232.96 L55.93 254.89" class="st23"/>
			</g>
		</g>
	</g>
</svg>
